<mxfile host="app.diagrams.net" agent="Mozilla/5.0 (Windows NT 10.0; Win64; x64) AppleWebKit/537.36 (KHTML, like Gecko) Chrome/133.0.0.0 Safari/537.36" version="26.1.0">
  <diagram name="PÃ¡gina-1" id="F0OEVziHQ8xmYYe5fqtu">
    <mxGraphModel dx="500" dy="265" grid="1" gridSize="10" guides="1" tooltips="1" connect="1" arrows="1" fold="1" page="1" pageScale="1" pageWidth="827" pageHeight="1169" math="0" shadow="0">
      <root>
        <mxCell id="0" />
        <mxCell id="1" parent="0" />
        <mxCell id="8iqV3rPcahgQUhpmWIuW-30" style="edgeStyle=orthogonalEdgeStyle;rounded=0;orthogonalLoop=1;jettySize=auto;html=1;exitX=0.5;exitY=1;exitDx=0;exitDy=0;exitPerimeter=0;entryX=0.5;entryY=0;entryDx=0;entryDy=0;" edge="1" parent="1" source="8iqV3rPcahgQUhpmWIuW-1" target="8iqV3rPcahgQUhpmWIuW-3">
          <mxGeometry relative="1" as="geometry" />
        </mxCell>
        <mxCell id="8iqV3rPcahgQUhpmWIuW-1" value="Inicio" style="strokeWidth=2;html=1;shape=mxgraph.flowchart.start_1;whiteSpace=wrap;" vertex="1" parent="1">
          <mxGeometry x="364" y="20" width="100" height="60" as="geometry" />
        </mxCell>
        <mxCell id="8iqV3rPcahgQUhpmWIuW-2" value="Fim" style="strokeWidth=2;html=1;shape=mxgraph.flowchart.start_1;whiteSpace=wrap;" vertex="1" parent="1">
          <mxGeometry x="364" y="554.5" width="100" height="60" as="geometry" />
        </mxCell>
        <mxCell id="8iqV3rPcahgQUhpmWIuW-3" value="VAR-NOME&lt;div&gt;VAR-N1&lt;/div&gt;&lt;div&gt;VAR-N2&lt;/div&gt;&lt;div&gt;VAR-MEDIA&lt;/div&gt;" style="rounded=1;whiteSpace=wrap;html=1;absoluteArcSize=1;arcSize=14;strokeWidth=2;" vertex="1" parent="1">
          <mxGeometry x="304" y="100" width="220" height="80" as="geometry" />
        </mxCell>
        <mxCell id="8iqV3rPcahgQUhpmWIuW-5" value="VAR-NOME" style="html=1;strokeWidth=2;shape=manualInput;whiteSpace=wrap;rounded=1;size=26;arcSize=11;" vertex="1" parent="1">
          <mxGeometry x="364" y="180" width="100" height="60" as="geometry" />
        </mxCell>
        <mxCell id="8iqV3rPcahgQUhpmWIuW-6" value="VAR-N1" style="html=1;strokeWidth=2;shape=manualInput;whiteSpace=wrap;rounded=1;size=26;arcSize=11;" vertex="1" parent="1">
          <mxGeometry x="364" y="250" width="100" height="60" as="geometry" />
        </mxCell>
        <mxCell id="8iqV3rPcahgQUhpmWIuW-14" style="edgeStyle=orthogonalEdgeStyle;rounded=0;orthogonalLoop=1;jettySize=auto;html=1;exitX=0.5;exitY=1;exitDx=0;exitDy=0;" edge="1" parent="1" source="8iqV3rPcahgQUhpmWIuW-7" target="8iqV3rPcahgQUhpmWIuW-8">
          <mxGeometry relative="1" as="geometry" />
        </mxCell>
        <mxCell id="8iqV3rPcahgQUhpmWIuW-7" value="VAR-N2" style="html=1;strokeWidth=2;shape=manualInput;whiteSpace=wrap;rounded=1;size=26;arcSize=11;" vertex="1" parent="1">
          <mxGeometry x="364" y="320" width="100" height="60" as="geometry" />
        </mxCell>
        <mxCell id="8iqV3rPcahgQUhpmWIuW-8" value="VAR-MEDIA = (VAR-N1 + VAR-N2) / 2" style="rounded=1;whiteSpace=wrap;html=1;absoluteArcSize=1;arcSize=14;strokeWidth=2;" vertex="1" parent="1">
          <mxGeometry x="304" y="390" width="220" height="80" as="geometry" />
        </mxCell>
        <mxCell id="8iqV3rPcahgQUhpmWIuW-9" value="VAR-MEDIA" style="strokeWidth=2;html=1;shape=mxgraph.flowchart.display;whiteSpace=wrap;" vertex="1" parent="1">
          <mxGeometry x="364" y="480" width="100" height="60" as="geometry" />
        </mxCell>
        <mxCell id="8iqV3rPcahgQUhpmWIuW-15" style="edgeStyle=orthogonalEdgeStyle;rounded=0;orthogonalLoop=1;jettySize=auto;html=1;exitX=0.5;exitY=1;exitDx=0;exitDy=0;entryX=0.5;entryY=0;entryDx=0;entryDy=0;entryPerimeter=0;" edge="1" parent="1" source="8iqV3rPcahgQUhpmWIuW-8" target="8iqV3rPcahgQUhpmWIuW-9">
          <mxGeometry relative="1" as="geometry" />
        </mxCell>
        <mxCell id="8iqV3rPcahgQUhpmWIuW-26" style="edgeStyle=orthogonalEdgeStyle;rounded=0;orthogonalLoop=1;jettySize=auto;html=1;exitX=0.5;exitY=1;exitDx=0;exitDy=0;entryX=0.495;entryY=0.282;entryDx=0;entryDy=0;entryPerimeter=0;" edge="1" parent="1" source="8iqV3rPcahgQUhpmWIuW-3" target="8iqV3rPcahgQUhpmWIuW-5">
          <mxGeometry relative="1" as="geometry" />
        </mxCell>
        <mxCell id="8iqV3rPcahgQUhpmWIuW-27" style="edgeStyle=orthogonalEdgeStyle;rounded=0;orthogonalLoop=1;jettySize=auto;html=1;exitX=0.5;exitY=1;exitDx=0;exitDy=0;entryX=0.48;entryY=0.201;entryDx=0;entryDy=0;entryPerimeter=0;" edge="1" parent="1" source="8iqV3rPcahgQUhpmWIuW-5" target="8iqV3rPcahgQUhpmWIuW-6">
          <mxGeometry relative="1" as="geometry" />
        </mxCell>
        <mxCell id="8iqV3rPcahgQUhpmWIuW-28" style="edgeStyle=orthogonalEdgeStyle;rounded=0;orthogonalLoop=1;jettySize=auto;html=1;exitX=0.5;exitY=1;exitDx=0;exitDy=0;entryX=0.498;entryY=0.167;entryDx=0;entryDy=0;entryPerimeter=0;" edge="1" parent="1" source="8iqV3rPcahgQUhpmWIuW-6" target="8iqV3rPcahgQUhpmWIuW-7">
          <mxGeometry relative="1" as="geometry" />
        </mxCell>
        <mxCell id="8iqV3rPcahgQUhpmWIuW-29" style="edgeStyle=orthogonalEdgeStyle;rounded=0;orthogonalLoop=1;jettySize=auto;html=1;exitX=0.5;exitY=1;exitDx=0;exitDy=0;exitPerimeter=0;entryX=0.5;entryY=0;entryDx=0;entryDy=0;entryPerimeter=0;" edge="1" parent="1" source="8iqV3rPcahgQUhpmWIuW-9" target="8iqV3rPcahgQUhpmWIuW-2">
          <mxGeometry relative="1" as="geometry" />
        </mxCell>
      </root>
    </mxGraphModel>
  </diagram>
</mxfile>
